<?xml version="1.0" standalone="no"?>
<!DOCTYPE svg PUBLIC "-//W3C//DTD SVG 20010904//EN"
 "http://www.w3.org/TR/2001/REC-SVG-20010904/DTD/svg10.dtd">
<svg version="1.0" xmlns="http://www.w3.org/2000/svg"
 width="209.000000pt" height="189.000000pt" viewBox="0 0 209.000000 189.000000"
 preserveAspectRatio="xMidYMid meet">

<g transform="translate(0.000000,189.000000) scale(0.100000,-0.100000)"
fill="#000000" stroke="none">
<path d="M868 1833 c-26 -4 -28 -8 -28 -52 l0 -47 -62 -13 c-35 -7 -77 -19
-95 -26 -32 -14 -33 -13 -55 26 -12 21 -26 39 -30 39 -14 0 -110 -50 -155 -82
l-43 -29 21 -41 21 -41 -70 -69 -69 -70 -40 21 c-38 19 -42 19 -56 3 -19 -22
-97 -163 -97 -178 0 -6 17 -20 39 -32 l38 -22 -18 -52 c-10 -29 -21 -72 -25
-95 l-6 -43 -48 0 -48 0 -7 -60 c-4 -33 -4 -87 0 -120 l7 -60 48 0 48 0 6 -42
c4 -24 15 -67 25 -96 l18 -52 -38 -22 c-22 -12 -39 -26 -39 -32 0 -15 78 -156
97 -178 14 -16 18 -16 56 3 l40 21 69 -70 70 -69 -21 -41 -21 -41 43 -29 c45
-32 141 -82 155 -82 4 0 18 17 30 39 l22 38 52 -18 c29 -10 72 -21 96 -25 l42
-6 0 -44 0 -44 120 0 120 0 0 44 0 44 43 6 c23 4 66 15 95 25 l52 18 22 -38
c12 -22 26 -39 31 -39 15 0 139 68 170 93 l29 23 -23 38 -22 38 70 70 70 70
41 -21 41 -21 24 33 c30 40 87 146 87 162 0 6 -16 20 -35 31 -21 11 -34 25
-33 34 2 8 12 52 23 98 l20 82 46 0 c46 0 46 0 53 38 8 47 8 117 0 165 -7 37
-7 37 -53 37 l-46 0 -20 83 c-11 45 -21 89 -23 97 -1 9 12 23 33 34 19 11 35
25 35 31 0 16 -57 122 -87 162 l-24 33 -41 -21 -41 -21 -70 70 -70 70 22 37
c20 34 20 39 7 54 -16 18 -167 101 -183 101 -5 0 -19 -18 -31 -39 -22 -39 -23
-40 -55 -26 -18 7 -60 19 -95 26 l-62 13 0 47 c0 46 0 46 -37 53 -40 6 -130 6
-175 -1z m251 -249 c36 -9 104 -34 151 -57 69 -33 102 -58 176 -132 75 -74 99
-106 132 -175 53 -109 72 -191 72 -310 0 -119 -19 -201 -72 -310 -33 -69 -57
-101 -132 -175 -74 -74 -107 -99 -176 -132 -110 -53 -194 -73 -310 -73 -116 0
-200 20 -310 73 -69 34 -102 58 -175 132 -74 73 -99 106 -133 175 -53 108 -72
190 -72 310 0 120 19 202 72 310 34 69 59 102 133 175 100 100 186 152 310
185 89 24 244 26 334 4z"/>
<path d="M820 1534 c-234 -50 -436 -254 -485 -489 -84 -401 220 -774 631 -775
283 -1 542 205 614 486 87 338 -124 687 -466 774 -90 23 -199 25 -294 4z m194
-63 c25 -21 51 -41 58 -44 9 -3 3 -15 -19 -39 -27 -28 -33 -42 -33 -79 0 -25
7 -54 15 -65 20 -26 19 -31 -7 -40 l-23 -7 23 -8 c12 -5 24 -14 26 -21 16 -52
12 -50 55 -29 21 11 49 33 60 47 21 27 21 27 2 48 -68 73 2 191 101 172 56
-10 81 -45 89 -126 12 -112 60 -194 152 -261 34 -25 36 -28 18 -34 -11 -3 -37
-1 -58 4 -20 6 -39 9 -41 6 -8 -8 40 -134 69 -180 16 -26 28 -49 25 -52 -8 -8
-71 29 -108 64 l-36 35 19 -72 c11 -40 30 -99 44 -131 13 -32 19 -59 14 -59
-24 0 -95 81 -126 145 -35 74 -40 67 -19 -32 7 -35 9 -63 5 -63 -15 0 -70 96
-85 147 -9 29 -17 53 -19 53 -2 0 -1 -26 2 -57 l5 -58 -21 20 c-11 11 -30 45
-41 75 l-20 55 3 -53 c1 -28 -1 -52 -4 -52 -13 0 -38 49 -50 96 l-12 48 -18
-49 c-25 -71 -24 -84 9 -91 75 -16 121 -38 152 -69 33 -34 33 -35 14 -49 -18
-14 -18 -15 10 -45 28 -29 30 -29 58 -15 32 16 68 5 68 -22 0 -8 -3 -13 -8
-10 -4 2 -23 1 -42 -4 l-35 -8 33 -1 c44 -1 72 -17 72 -41 0 -24 -1 -24 -47
-5 -40 17 -57 13 -23 -5 25 -13 25 -60 0 -68 -8 -3 -12 -2 -9 2 3 4 -12 26
-33 49 -23 24 -42 37 -45 30 -9 -24 -42 -55 -52 -48 -18 11 -12 38 15 66 l25
26 -26 31 c-25 30 -27 31 -51 16 -16 -11 -24 -12 -24 -5 0 24 -49 61 -80 61
-37 0 -39 -15 -2 -32 34 -17 37 -57 5 -73 -17 -9 -20 -14 -11 -23 19 -19 56
-14 68 8 14 27 24 25 38 -5 19 -41 14 -64 -17 -96 -22 -22 -39 -29 -68 -29
-36 0 -39 -3 -60 -50 -12 -28 -27 -50 -33 -50 -7 0 -21 23 -33 50 -20 47 -23
50 -58 50 -68 0 -113 61 -88 122 14 33 24 35 39 8 12 -22 49 -27 68 -8 9 9 6
14 -11 23 -32 16 -29 56 6 73 36 17 34 32 -3 32 -31 0 -80 -37 -80 -61 0 -7
-8 -6 -24 5 -24 15 -26 14 -51 -16 l-26 -31 26 -27 c26 -27 31 -60 10 -66 -5
-2 -20 10 -32 27 l-21 31 -40 -40 c-22 -22 -37 -44 -33 -48 3 -4 -1 -5 -9 -2
-25 8 -25 55 0 68 34 18 17 22 -23 5 -46 -19 -47 -19 -47 5 0 24 28 40 72 41
l33 1 -35 8 c-19 5 -38 6 -42 4 -5 -3 -8 2 -8 10 0 27 36 38 69 21 29 -14 31
-14 56 12 30 33 31 39 8 52 -16 9 -15 13 16 45 32 33 82 56 157 71 l32 6 -21
65 -22 66 -11 -47 c-12 -46 -38 -95 -52 -95 -4 0 -6 24 -5 52 l3 53 -19 -54
c-10 -29 -29 -63 -41 -75 l-22 -21 6 58 c3 31 4 57 2 57 -3 0 -11 -24 -20 -53
-15 -51 -70 -147 -85 -147 -4 0 -2 28 5 63 21 99 16 106 -19 32 -31 -63 -101
-145 -126 -145 -5 0 2 26 14 58 13 31 33 90 44 131 l21 75 -38 -36 c-37 -35
-100 -73 -108 -65 -2 2 11 29 29 60 32 53 74 164 65 172 -2 3 -21 0 -41 -6
-21 -5 -47 -7 -58 -4 -18 6 -16 9 18 34 92 67 138 146 152 261 11 83 34 116
89 126 99 19 169 -99 101 -172 -19 -21 -19 -21 2 -48 11 -14 38 -35 59 -46
l38 -20 23 67 c30 93 30 160 -1 207 -16 23 -33 36 -47 36 -13 0 -23 4 -23 9 0
17 52 51 79 51 14 0 33 5 41 10 27 17 48 11 94 -29z"/>
<path d="M930 1456 c0 -21 15 -27 41 -18 l23 9 -21 12 c-29 15 -43 14 -43 -3z"/>
<path d="M663 1363 c-7 -2 -13 -13 -13 -24 0 -12 -7 -19 -19 -19 -10 0 -22 -7
-25 -16 -7 -18 10 -44 28 -44 7 0 17 -26 24 -58 24 -114 97 -188 215 -218 113
-29 237 -1 311 70 43 42 86 131 86 179 0 13 9 26 23 32 12 6 22 19 22 30 0 13
-8 21 -22 23 -15 2 -23 10 -23 23 0 25 -26 35 -46 18 -10 -8 -13 -21 -9 -36 3
-13 1 -23 -5 -23 -5 0 -10 -12 -10 -26 0 -24 3 -26 30 -22 30 5 31 4 24 -26
-25 -119 -126 -194 -270 -204 -159 -10 -292 75 -318 204 -7 30 -6 31 24 26 27
-4 30 -1 30 21 0 14 -4 28 -10 32 -5 3 -7 12 -3 20 3 9 0 22 -7 30 -13 16 -17
17 -37 8z"/>
</g>
</svg>
